PathFileType	4	(X/Y/Z)	Patient4_TMGait_0pt4_02_right_01.trc.trc
DataRate	CameraRate	NumFrames	NumMarkers	Units	OrigDataRate	OrigDataStartFrame	OrigNumFrames
71.428571428571	71.428571428571	6	33	mm	71.428571428571	53	       141
Frame#	Time	Sacral			L.Shoulder			Chest			R.Shoulder			Neck			R.ASIS			L.ASIS			R.Thigh.Superior			R.Thigh.Lateral			R.Thigh.Inferior			R.Patella			L.Thigh.Superior			L.Thigh.Lateral			L.Thigh.Inferior			L.Patella			L.Shank.Superior			L.Shank.Lateral			L.Shank.Inferior			R.Shank.Superior			R.Shank.Lateral			R.Shank.Inferior			R.Heel			R.Midfoot.Superior			R.Midfoot.Lateral			R.Toe			L.Heel			L.Midfoot.Lateral			L.Midfoot.Superior			L.Toe			L.Elbow			L.Wrist			R.Elbow			R.Wrist			
		X1	Y1	Z1	X2	Y2	Z2	X3	Y3	Z3	X4	Y4	Z4	X5	Y5	Z5	X6	Y6	Z6	X7	Y7	Z7	X8	Y8	Z8	X9	Y9	Z9	X10	Y10	Z10	X11	Y11	Z11	X12	Y12	Z12	X13	Y13	Z13	X14	Y14	Z14	X15	Y15	Z15	X16	Y16	Z16	X17	Y17	Z17	X18	Y18	Z18	X19	Y19	Z19	X20	Y20	Z20	X21	Y21	Z21	X22	Y22	Z22	X23	Y23	Z23	X24	Y24	Z24	X25	Y25	Z25	X26	Y26	Z26	X27	Y27	Z27	X28	Y28	Z28	X29	Y29	Z29	X30	Y30	Z30	X31	Y31	Z31	X32	Y32	Z32	X33	Y33	Z33	

53	1.218000000000	875.225892919707	1008.081771170301	529.027482715849	1036.388614612700	1441.836730665127	338.890515510471	1153.186049389419	1373.518079866662	489.778193458492	1084.416746484940	1442.956670115071	671.522821321058	1030.770832688271	1500.322508845595	496.391527856249	1114.057605315189	946.551574750520	625.435790164554	1076.510331678148	970.280248289605	354.489005359290	1138.688242190115	740.067270037646	593.833671205628	1052.659850931281	634.468626415139	657.551098939273	1121.613703659977	579.041399981560	573.606409092980	1115.590722329366	494.278618439304	577.966038405507	1162.165340078282	789.154240735288	369.635225802245	1114.151998142735	662.145942066666	290.472733961404	1225.353300318055	603.841299330409	337.153354242815	1242.877323820621	519.518173549445	327.482919204048	1189.196113810330	445.903738404029	323.549578818176	1057.592986097074	375.185598636778	282.085764485338	1078.189824629329	245.240043349277	333.424452148351	1088.240810926577	405.854546458573	584.488608382285	1018.536697180985	301.152812931724	647.811842268022	1057.911728727670	207.654987751108	579.227438088337	922.760589278068	42.681762305437	549.808521228952	1095.610853896552	97.076384596069	579.239846371122	1008.869392485442	37.012832279399	621.384580069760	1216.646821765921	44.506174271185	601.025724114711	911.415734368272	138.590084565078	381.416336574682	970.621861645388	109.479345158327	295.369839828377	1072.056873471821	141.571585015064	310.413580396436	1170.563578739618	51.828755798429	271.511985008184	968.824930299805	1096.091629420602	221.828656219776	1014.970930023962	838.836668326837	199.975528685444	1143.577192604367	1117.686031808639	823.416498607102	1384.856158016278	1056.946842723557	770.829279845213	
54	1.232000000000	874.010531999074	1008.968107224031	530.678839864119	1035.329232641426	1442.276516354580	340.487333175397	1153.322414537519	1373.122293194957	490.050322313567	1086.746630971070	1442.621035896234	672.578017763869	1031.370105061303	1500.413813908246	497.923102632877	1112.872751383699	946.108893170474	625.432094075994	1074.021478651267	970.744586685868	354.739374140983	1135.192947103147	739.327201122253	593.373867228438	1048.747146782908	634.373741766723	657.745825033812	1116.545517323589	578.444967697770	573.372855492242	1109.975208356705	494.041374306460	577.774423155154	1159.854579869415	790.713678080528	370.430940377963	1113.094762189697	663.463281984837	290.955636316173	1224.156337528649	605.908726673124	338.564319863678	1243.249738498926	523.129091293196	328.661905405033	1193.251988468385	448.591141686914	323.877674592616	1066.462026225588	370.579016675558	281.645609295289	1095.125708909182	241.674394945510	331.881974731132	1082.610952811460	405.735963346681	584.410171762560	1013.062282267468	301.034798753732	647.868884602778	1052.229662653718	207.559241003521	579.148330223440	917.095343015333	42.614311532354	549.799277300283	1089.875825934023	97.032489673955	579.202325269290	1003.192209711062	36.997624642171	621.398106882230	1210.955322482409	44.534469843759	601.075007335223	935.846756211845	124.445025558608	379.183217855389	996.467600364250	99.940401278698	292.774087985301	1095.623999413386	138.027667929506	308.005366968932	1199.285434485759	55.204122030084	268.183765472904	958.636499343068	1098.033466445826	225.071002498349	997.954920222412	839.527365787061	204.969033386933	1151.388451076876	1117.969590733592	822.820430834310	1393.666975782373	1066.163834569981	766.797499728079	
55	1.246000000000	872.815123823818	1009.710839428933	532.178670347495	1034.379362392723	1442.535487724324	341.887103011361	1153.510806359206	1372.550920372266	490.157208876588	1089.088520097620	1442.146575790669	673.422689105761	1032.045407938635	1500.341375808378	499.266834418628	1111.689632275516	945.558346451210	625.289762755610	1071.555271385383	971.029179897252	354.825536961878	1131.803210833039	738.569328820431	592.744673129116	1045.086899869965	634.212082345253	657.876197714708	1111.683016308931	577.826543169876	573.036704364218	1104.594649082231	493.740468005510	577.532839055717	1157.172460184120	791.631513722340	371.163662624984	1111.424907321073	664.269904389367	291.385137463940	1222.000627541383	607.125275371209	340.313904586240	1242.586541227384	526.170078766617	330.161786695504	1196.523421637490	451.007572741982	324.349405665299	1075.403722198646	365.537953481330	281.004442548146	1112.465760534898	238.224968795677	330.207450369563	1077.182279933544	405.547826280828	584.291917432666	1007.784890022198	300.875305171936	647.919091662484	1046.632110724218	207.413325824120	579.024859180014	911.428512245830	42.551319833725	549.780375107480	1084.143727129983	96.968422169597	579.140381614002	997.522883458551	36.984898205003	621.402589323928	1205.275549155163	44.523706338266	601.114575683779	961.611431742842	110.431541056211	376.517479825483	1023.667621678922	90.629736742125	289.923345226303	1120.138028430570	134.799095110904	305.488641313318	1228.855826096272	59.280474964917	265.115856544425	948.932480906194	1099.928540839581	228.316665116594	981.569489739343	840.389029709895	209.955427655636	1158.817935615691	1118.004405983373	821.759169945316	1401.705120086491	1074.764970678919	762.372686455930	
56	1.260000000000	871.640125323291	1010.307225642471	533.530963642719	1033.537492981450	1442.625317752803	343.067549617719	1153.735199124961	1371.819157578487	490.092390181751	1091.403558825277	1441.544148420093	674.046606031744	1032.789640695435	1500.115099721110	500.421623306966	1110.531102642090	944.932767509074	625.026565163216	1069.123549419452	971.119462030832	354.756472102375	1128.570764394124	737.809127823349	592.012141450163	1041.694250034382	633.993920012481	657.962900022083	1107.067731050988	577.194539894559	572.644189257914	1099.477452635690	493.382578273379	577.275680740998	1154.160137775117	791.928729905779	371.837241430572	1109.206166896660	664.598828846705	291.725980249369	1218.996257429599	607.542869316144	342.313668392775	1241.005382324483	528.663328448026	331.905475740031	1199.042213372801	453.198134306953	324.941656443652	1084.364408645879	360.347393483668	280.174211434581	1129.900958678477	235.215346615834	328.505248873126	1071.973898902976	405.300362681425	584.159536951111	1002.703502494919	300.687288955893	647.978188741312	1041.126512977410	207.226391870520	578.877973622957	905.763965166206	42.497386925590	549.760593929552	1078.422162388807	96.889594689040	579.065885306243	991.863546461510	36.975422196948	621.403077649024	1199.609310146004	44.476813573726	601.144950833510	988.211515735102	97.259774076421	373.566253624559	1051.719566518926	82.065833731789	287.012796541418	1145.141230064101	132.215697849136	303.040581792088	1258.654014429327	64.142530070937	262.608161881690	939.823968490403	1101.730001324139	231.549972088201	965.881524155065	841.364552785973	214.886197531803	1165.848388300364	1117.792506324540	820.251499175933	1408.987613710748	1082.662048915452	757.592599600286	
57	1.274000000000	870.491294137686	1010.767178327075	534.737382314495	1032.801804468748	1442.570969671510	344.008577315604	1153.978428794760	1370.957512470382	489.852411438453	1093.649277259687	1440.839631833250	674.440470008162	1033.589527508335	1499.758320382494	501.383470564815	1109.420091679807	944.269841582636	624.660406270655	1066.743506155263	971.020013475415	354.546448176548	1125.538135086167	737.060028535115	591.248329360825	1038.555787966390	633.735847918085	658.021034768410	1102.716954846909	576.557871760764	572.242620271184	1094.627550952540	492.979328560491	577.033094867909	1150.873468508965	791.662536219246	372.449979738507	1106.516747617400	664.510961028686	291.945227396629	1215.291203158367	607.259856258647	344.436981130179	1238.650426150624	530.657750330157	333.791579329606	1200.859374934392	455.209583624611	325.617123548441	1093.244876989863	355.271764559147	279.189961928560	1147.087700879978	232.896903853048	326.878779600199	1066.981524670549	405.010677421603	584.034312767748	997.796438728350	300.488996949107	648.056859060585	1035.710201485505	207.012724098548	578.728506569570	900.104822708519	42.457017629280	549.747688874278	1072.716966470293	96.802829234065	578.991244326324	986.214752536834	36.969540586357	621.404257679688	1193.956665113917	44.399800770811	601.167490854321	1015.054436977125	85.510765306430	370.506166968558	1080.034758075615	74.643682746139	284.248709069039	1170.122454978792	130.508521105079	300.828697404378	1288.046640610594	69.781833702050	260.916153918411	931.405382005592	1103.404448728377	234.735400508101	950.970340824417	842.412039715703	219.716269308343	1172.460216942659	1117.352580456486	818.312679132731	1415.534949250635	1089.772756948242	752.493458929399	
58	1.288000000000	869.380520285044	1011.109205154751	535.796890149565	1032.167873300048	1442.405308594888	344.694229150798	1154.222946251081	1370.007448687015	489.437240568205	1095.782506108144	1440.069721884594	674.597420915073	1034.423956033542	1499.304102584710	502.143803853122	1108.378945530397	943.607547892464	624.207698327324	1064.437394560782	970.751536758247	354.212915538338	1122.734648976044	736.331990379429	590.521636091541	1035.632961917918	633.459170465625	658.059947160385	1098.623333695543	575.925159006832	571.875594647376	1090.025563887380	492.545371979255	576.828997125721	1147.388146589177	790.921537915179	372.991661901791	1103.452063659761	664.082484869458	292.022287664917	1211.072126559479	606.408782492922	346.532670161880	1235.691039531449	532.215743922000	335.704691334204	1202.044407452255	457.077148904338	326.328359795125	1101.897188331080	350.532939395335	278.113988696740	1163.658101975540	231.420427532351	325.419834630029	1062.179830523147	404.699291121047	583.931776612726	993.025309829523	300.301487624227	648.160636279807	1030.371821486822	206.790047443336	578.595254365758	894.452548164487	42.434224348876	549.747471699161	1067.031392534657	96.715320073543	578.927938658048	980.575568495500	36.967171076800	621.410072001259	1188.315912335075	44.300888214345	601.184192260003	1041.473973060661	75.592666498339	367.530790678114	1107.946670274544	68.605920737387	281.827338360979	1194.525046143890	129.783642178471	298.991846675111	1316.393238572931	76.076783006999	260.208982884262	923.750293597814	1104.929977146015	237.818844791874	936.928378026718	843.499611985882	224.402020820434	1178.629273005943	1116.716836716060	815.956975937891	1421.369857473227	1096.023817985599	747.109357102777	
